<?xml version="1.0" encoding="UTF-8"?>
<!DOCTYPE svg PUBLIC "-//W3C//DTD SVG 1.1//EN" "http://www.w3.org/Graphics/SVG/1.1/DTD/svg11.dtd">
<svg version="1.2" width="121.71mm" height="54.5mm" viewBox="0 0 12171 5450" preserveAspectRatio="xMidYMid" fill-rule="evenodd" stroke-width="28.222" stroke-linejoin="round" xmlns="http://www.w3.org/2000/svg" xmlns:ooo="http://xml.openoffice.org/svg/export" xmlns:xlink="http://www.w3.org/1999/xlink" xmlns:presentation="http://sun.com/xmlns/staroffice/presentation" xmlns:smil="http://www.w3.org/2001/SMIL20/" xmlns:anim="urn:oasis:names:tc:opendocument:xmlns:animation:1.0" xml:space="preserve">
 <defs class="ClipPathGroup">
  <clipPath id="presentation_clip_path" clipPathUnits="userSpaceOnUse">
   <rect x="0" y="0" width="12171" height="5450"/>
  </clipPath>
  <clipPath id="presentation_clip_path_shrink" clipPathUnits="userSpaceOnUse">
   <rect x="12" y="5" width="12147" height="5440"/>
  </clipPath>
 </defs>
 <defs class="TextShapeIndex">
  <g ooo:slide="id1" ooo:id-list="id3"/>
 </defs>
 <defs class="EmbeddedBulletChars">
  <g id="bullet-char-template-57356" transform="scale(0.00048828125,-0.00048828125)">
   <path d="M 580,1141 L 1163,571 580,0 -4,571 580,1141 Z"/>
  </g>
  <g id="bullet-char-template-57354" transform="scale(0.00048828125,-0.00048828125)">
   <path d="M 8,1128 L 1137,1128 1137,0 8,0 8,1128 Z"/>
  </g>
  <g id="bullet-char-template-10146" transform="scale(0.00048828125,-0.00048828125)">
   <path d="M 174,0 L 602,739 174,1481 1456,739 174,0 Z M 1358,739 L 309,1346 659,739 1358,739 Z"/>
  </g>
  <g id="bullet-char-template-10132" transform="scale(0.00048828125,-0.00048828125)">
   <path d="M 2015,739 L 1276,0 717,0 1260,543 174,543 174,936 1260,936 717,1481 1274,1481 2015,739 Z"/>
  </g>
  <g id="bullet-char-template-10007" transform="scale(0.00048828125,-0.00048828125)">
   <path d="M 0,-2 C -7,14 -16,27 -25,37 L 356,567 C 262,823 215,952 215,954 215,979 228,992 255,992 264,992 276,990 289,987 310,991 331,999 354,1012 L 381,999 492,748 772,1049 836,1024 860,1049 C 881,1039 901,1025 922,1006 886,937 835,863 770,784 769,783 710,716 594,584 L 774,223 C 774,196 753,168 711,139 L 727,119 C 717,90 699,76 672,76 641,76 570,178 457,381 L 164,-76 C 142,-110 111,-127 72,-127 30,-127 9,-110 8,-76 1,-67 -2,-52 -2,-32 -2,-23 -1,-13 0,-2 Z"/>
  </g>
  <g id="bullet-char-template-10004" transform="scale(0.00048828125,-0.00048828125)">
   <path d="M 285,-33 C 182,-33 111,30 74,156 52,228 41,333 41,471 41,549 55,616 82,672 116,743 169,778 240,778 293,778 328,747 346,684 L 369,508 C 377,444 397,411 428,410 L 1163,1116 C 1174,1127 1196,1133 1229,1133 1271,1133 1292,1118 1292,1087 L 1292,965 C 1292,929 1282,901 1262,881 L 442,47 C 390,-6 338,-33 285,-33 Z"/>
  </g>
  <g id="bullet-char-template-9679" transform="scale(0.00048828125,-0.00048828125)">
   <path d="M 813,0 C 632,0 489,54 383,161 276,268 223,411 223,592 223,773 276,916 383,1023 489,1130 632,1184 813,1184 992,1184 1136,1130 1245,1023 1353,916 1407,772 1407,592 1407,412 1353,268 1245,161 1136,54 992,0 813,0 Z"/>
  </g>
  <g id="bullet-char-template-8226" transform="scale(0.00048828125,-0.00048828125)">
   <path d="M 346,457 C 273,457 209,483 155,535 101,586 74,649 74,723 74,796 101,859 155,911 209,963 273,989 346,989 419,989 480,963 531,910 582,859 608,796 608,723 608,648 583,586 532,535 482,483 420,457 346,457 Z"/>
  </g>
  <g id="bullet-char-template-8211" transform="scale(0.00048828125,-0.00048828125)">
   <path d="M -4,459 L 1135,459 1135,606 -4,606 -4,459 Z"/>
  </g>
  <g id="bullet-char-template-61548" transform="scale(0.00048828125,-0.00048828125)">
   <path d="M 173,740 C 173,903 231,1043 346,1159 462,1274 601,1332 765,1332 928,1332 1067,1274 1183,1159 1299,1043 1357,903 1357,740 1357,577 1299,437 1183,322 1067,206 928,148 765,148 601,148 462,206 346,322 231,437 173,577 173,740 Z"/>
  </g>
 </defs>
 <defs class="TextEmbeddedBitmaps"/>
 <g>
  <g id="id2" class="Master_Slide">
   <g id="bg-id2" class="Background"/>
   <g id="bo-id2" class="BackgroundObjects"/>
  </g>
 </g>
 <g class="SlideGroup">
  <g>
   <g id="container-id1">
    <g id="id1" class="Slide" clip-path="url(#presentation_clip_path)">
     <g class="Page">
      <g class="Graphic">
       <g id="id3">
        <rect class="BoundingBox" stroke="none" fill="none" x="0" y="0" width="12171" height="5450"/>
        <path fill="rgb(41,50,225)" stroke="none" d="M 6085,5436 L 11892,5436 C 12038,5436 12157,5317 12157,5171 L 12157,278 C 12157,132 12038,13 11892,13 L 278,13 C 132,13 13,132 13,278 L 13,5171 C 13,5317 132,5436 278,5436 L 6085,5436 Z"/>
        <path fill="rgb(255,255,255)" stroke="none" d="M 1677,813 C 1750,809 1835,807 1933,807 2025,807 2112,814 2192,829 2272,844 2342,870 2402,906 2462,942 2508,991 2542,1053 2576,1114 2593,1191 2593,1283 2593,1360 2578,1430 2547,1494 2517,1559 2478,1610 2432,1648 2467,1663 2501,1683 2534,1707 2567,1731 2596,1761 2622,1797 2647,1834 2669,1876 2685,1925 2702,1974 2710,2029 2710,2090 2710,2200 2690,2289 2650,2360 2611,2430 2556,2485 2488,2525 2419,2565 2340,2592 2251,2608 2161,2624 2067,2632 1967,2632 1898,2632 1822,2629 1740,2625 1658,2621 1568,2613 1468,2602 L 1468,837 C 1535,825 1604,817 1677,813 Z M 1946,2293 C 1970,2294 1991,2294 2010,2294 2039,2294 2072,2291 2107,2285 2141,2279 2173,2268 2201,2252 2229,2235 2253,2212 2272,2183 2291,2154 2300,2116 2300,2068 2300,2023 2293,1987 2278,1959 2263,1931 2242,1909 2216,1893 2189,1877 2157,1866 2120,1859 2083,1853 2041,1850 1995,1850 L 1876,1850 1876,2286 C 1899,2290 1922,2292 1946,2293 Z M 1955,1532 C 2030,1535 2091,1522 2139,1492 2187,1462 2211,1405 2211,1321 2211,1279 2203,1246 2188,1220 2174,1194 2154,1174 2130,1159 2106,1144 2080,1134 2051,1130 2022,1125 1993,1122 1965,1122 L 1920,1122 1876,1127 1876,1529 1955,1532 Z M 2981,829 L 3388,829 3388,1499 3917,1499 3917,829 4324,829 4324,2604 3917,2604 3917,1847 C 3907,1849 3898,1850 3889,1852 L 3860,1857 3442,1857 3388,1847 3388,2604 2981,2604 2981,829 2981,829 Z M 5270,1750 L 5270,2098 4607,2098 4607,1750 5270,1750 Z M 5849,1184 C 5784,1184 5714,1184 5639,1183 5564,1182 5499,1182 5444,1182 L 5630,832 6253,832 6253,2115 C 6253,2210 6239,2289 6210,2355 6181,2420 6141,2473 6090,2514 6038,2554 5977,2584 5907,2603 5837,2622 5760,2632 5677,2632 5649,2632 5613,2630 5569,2625 5525,2621 5479,2613 5429,2599 5432,2578 5436,2551 5439,2520 5442,2488 5446,2457 5450,2424 5454,2392 5458,2360 5460,2329 5463,2297 5465,2271 5469,2249 5510,2258 5544,2263 5571,2267 5597,2270 5619,2272 5638,2272 5657,2272 5680,2270 5705,2268 5729,2265 5753,2258 5774,2246 5796,2233 5813,2213 5828,2185 5842,2157 5849,2118 5849,2068 L 5849,1184 5849,1184 Z M 6795,820 C 6873,815 6956,812 7046,812 7357,812 7594,887 7756,1039 7918,1190 7999,1422 7999,1735 7999,2046 7916,2274 7751,2417 7585,2560 7340,2632 7016,2632 6936,2632 6860,2629 6787,2624 6714,2619 6639,2612 6561,2602 L 6561,844 C 6639,834 6717,826 6795,820 Z M 6969,2269 C 7050,2277 7127,2277 7200,2269 7272,2261 7337,2238 7392,2200 7447,2162 7491,2105 7524,2030 7556,1954 7572,1854 7572,1728 7572,1617 7559,1526 7534,1455 7508,1384 7473,1327 7429,1285 7385,1242 7335,1213 7278,1197 7221,1180 7161,1172 7098,1172 L 7037,1172 6969,1177 6969,2269 6969,2269 Z M 8635,2252 L 9340,2252 9340,2604 8168,2604 8168,2306 8866,1182 8478,1182 8478,1398 8163,1226 8163,829 9335,829 9335,1125 8635,2252 Z M 10023,2252 L 10728,2252 10728,2604 9556,2604 9556,2306 10254,1182 9866,1182 9866,1398 9551,1226 9551,829 10723,829 10723,1125 10023,2252 Z"/>
        <path fill="rgb(254,244,232)" stroke="none" d="M 923,3726 C 954,3743 977,3766 993,3796 1010,3826 1018,3860 1018,3896 1018,3933 1009,3966 991,3996 973,4026 947,4050 915,4067 882,4084 846,4092 806,4092 L 675,4092 675,3700 814,3700 C 856,3700 892,3709 923,3726 Z M 798,4043 C 828,4043 855,4037 880,4025 905,4013 925,3997 939,3975 954,3953 961,3927 961,3896 961,3852 948,3816 920,3790 892,3763 856,3750 810,3750 L 728,3750 728,4043 798,4043 798,4043 Z M 1668,3700 L 1836,4092 1774,4092 1734,3995 1547,3995 1509,4092 1446,4092 1619,3700 1668,3700 Z M 1566,3949 L 1715,3949 1642,3769 1640,3769 1566,3949 Z M 2499,3750 L 2373,3750 2373,4092 2320,4092 2320,3750 2193,3750 2193,3700 2499,3700 2499,3750 Z M 3078,3700 L 3246,4092 3184,4092 3145,3995 2958,3995 2919,4092 2857,4092 3030,3700 3078,3700 Z M 2977,3949 L 3125,3949 3052,3769 3051,3769 2977,3949 Z M 4426,3700 L 4594,4092 4532,4092 4493,3995 4306,3995 4267,4092 4205,4092 4378,3700 4426,3700 Z M 4325,3949 L 4474,3949 4400,3769 4399,3769 4325,3949 Z M 5334,4023 L 5335,4023 5335,3700 5388,3700 5388,4092 5320,4092 5102,3770 5101,3770 5101,4092 5047,4092 5047,3700 5117,3700 5334,4023 Z M 6177,4023 L 6178,4023 6178,3700 6231,3700 6231,4092 6163,4092 5945,3770 5944,3770 5944,4092 5891,4092 5891,3700 5961,3700 6177,4023 Z M 7060,3748 C 7099,3787 7119,3836 7119,3896 7119,3934 7110,3969 7093,4001 7075,4032 7051,4057 7019,4075 6988,4093 6953,4102 6914,4102 6876,4102 6841,4093 6810,4076 6779,4058 6754,4033 6736,4001 6718,3970 6710,3935 6710,3896 6710,3838 6729,3789 6767,3749 6805,3710 6854,3690 6914,3690 6973,3690 7021,3709 7060,3748 Z M 6808,4008 C 6835,4038 6871,4053 6914,4053 6957,4053 6992,4038 7020,4008 7048,3979 7062,3941 7062,3896 7062,3851 7048,3814 7021,3785 6993,3755 6957,3740 6914,3740 6871,3740 6836,3755 6808,3784 6780,3814 6766,3851 6766,3896 6766,3941 6780,3978 6808,4008 Z M 7859,3750 L 7733,3750 7733,4092 7679,4092 7679,3750 7553,3750 7553,3700 7859,3700 7859,3750 Z M 8438,3700 L 8606,4092 8544,4092 8504,3995 8317,3995 8279,4092 8217,4092 8390,3700 8438,3700 Z M 8336,3949 L 8485,3949 8412,3769 8411,3769 8336,3949 Z M 9269,3750 L 9143,3750 9143,4092 9090,4092 9090,3750 8963,3750 8963,3700 9269,3700 9269,3750 Z M 9781,3700 L 9781,4092 9728,4092 9728,3700 9781,3700 Z M 10610,3748 C 10649,3787 10669,3836 10669,3896 10669,3934 10660,3969 10643,4001 10625,4032 10601,4057 10569,4075 10538,4093 10503,4102 10464,4102 10426,4102 10391,4093 10360,4076 10328,4058 10304,4033 10286,4001 10268,3970 10260,3935 10260,3896 10260,3838 10279,3789 10317,3749 10355,3710 10404,3690 10464,3690 10523,3690 10571,3709 10610,3748 Z M 10358,4008 C 10385,4038 10421,4053 10464,4053 10507,4053 10542,4038 10570,4008 10598,3979 10612,3941 10612,3896 10612,3851 10598,3814 10571,3785 10543,3755 10507,3740 10464,3740 10421,3740 10386,3755 10358,3784 10330,3814 10316,3851 10316,3896 10316,3941 10330,3978 10358,4008 Z M 11217,3700 L 11433,4023 11434,4023 11434,3700 11488,3700 11488,4092 11420,4092 11202,3770 11200,3770 11200,4092 11147,4092 11147,3700 11217,3700 Z"/>
       </g>
      </g>
     </g>
    </g>
   </g>
  </g>
 </g>
</svg>