<?xml version="1.0" encoding="utf-8"?>
<!-- Generator: Adobe Illustrator 23.0.1, SVG Export Plug-In . SVG Version: 6.00 Build 0)  -->
<svg version="1.1" id="图层_1" xmlns="http://www.w3.org/2000/svg" xmlns:xlink="http://www.w3.org/1999/xlink" x="0px" y="0px"
	 viewBox="0 0 341 32" style="enable-background:new 0 0 341 32;" xml:space="preserve">
<style type="text/css">
	.st0{fill-rule:evenodd;clip-rule:evenodd;fill:url(#路径_1_);}
	.st1{fill:#FFFFFF;}
	.st2{fill-rule:evenodd;clip-rule:evenodd;fill:#FFFFFF;}
</style>
<title>1111NeuHub logo</title>
<desc>Created with Sketch.</desc>
<g id="Page-1">
	<g id="首页_1400" transform="translate(-55.000000, -9.000000)">
		<g id="焦点图">
			<g transform="translate(55.000000, 9.000000)">
				
					<linearGradient id="路径_1_" gradientUnits="userSpaceOnUse" x1="-125.7742" y1="422.7483" x2="-124.9695" y2="424.7202" gradientTransform="matrix(111.8468 0 0 -32 14078.3945 13575.4727)">
					<stop  offset="0" style="stop-color:#E1251B"/>
					<stop  offset="0.1479" style="stop-color:#E22B1F"/>
					<stop  offset="0.3409" style="stop-color:#E63B2A"/>
					<stop  offset="0.5" style="stop-color:#EA4E37"/>
					<stop  offset="0.6591" style="stop-color:#E63B2A"/>
					<stop  offset="0.8521" style="stop-color:#E22B1F"/>
					<stop  offset="1" style="stop-color:#E1251B"/>
				</linearGradient>
				<path id="路径" class="st0" d="M105.7,32H0V6.2C0,2.8,2.8,0,6.2,0h105.7v25.8C111.8,29.2,109.1,32,105.7,32z"/>
				<g id="分组" transform="translate(6.391245, 0.000000)">
					<path id="形状" class="st1" d="M91.7,10.8c-2,0-3.8,0.7-5.1,2V6.2h-2.3v19.4h2.3v-1.8c1.4,1.3,3.2,2,5.1,2
						c4.2,0,7.5-3.4,7.5-7.5C99.2,14.2,95.9,10.8,91.7,10.8z M91.7,23.5c-2.9,0-5.1-2.3-5.1-5.1c0-2.9,2.3-5.1,5.1-5.1
						c2.9,0,5.1,2.3,5.1,5.1C96.8,21.2,94.6,23.5,91.7,23.5z"/>
					<polygon class="st2" points="12.8,21.1 2.8,6.2 -0.2,6.2 -0.2,25.6 2.8,25.6 2.8,10.8 12.7,25.6 12.8,25.6 12.8,25.6 
						15.7,25.6 15.7,6.2 12.8,6.2 					"/>
					<path class="st2" d="M79.5,19.4c0,2.2-1.8,4.1-4,4.1c-2.2,0-4-1.8-4-4.1v-8.5H69v8.5c0,3.5,2.9,6.4,6.4,6.4
						c3.5,0,6.4-2.9,6.4-6.4v-8.5h-2.3V19.4z"/>
					<path class="st2" d="M45.9,19.4c0,2.2-1.8,4.1-4,4.1c-2.2,0-4-1.8-4-4.1v-8.5h-2.3v8.5c0,3.5,2.9,6.4,6.4,6.4
						c3.5,0,6.4-2.9,6.4-6.4v-8.5h-2.3V19.4z"/>
					<path class="st1" d="M29.4,11.8c-1.6-1-3.6-1.3-5.5-0.9c-4.2,1-6.5,5-5.5,9.1c0.9,3.6,4.5,6.6,8.9,5.7c1.4-0.3,2.7-1.1,3.6-2
						c0.7-0.7,1.3-1.7,1.7-2.8H30c-0.6,1.2-1.8,2.2-3.3,2.6c-2.1,0.5-4.9-0.5-5.9-3.1L33,17.6C32.6,15.1,31.3,13.1,29.4,11.8z
						 M20.3,18.2c-0.1-1.8,1.3-4.4,3.9-4.9c2.6-0.6,5,1,5.8,2.7L20.3,18.2z"/>
					<polygon class="st2" points="63.7,13.7 53.6,13.7 53.6,0 50.7,0 50.7,25.6 53.6,25.6 53.6,16.5 63.7,16.5 63.6,32 66.5,32 
						66.5,6.2 63.7,6.2 					"/>
				</g>
				<g transform="translate(121.000000, 7.000000)">
					<polygon class="st2" points="36.8,11.4 40.4,17.5 42,17.5 39.7,11.4 					"/>
					<polygon class="st2" points="21.9,17.5 23.4,17.5 27.1,11.4 24.2,11.4 					"/>
					<path class="st2" d="M29.1,0.4h-2.8l-0.5,1.2h-4v1.5h3.3l-2.6,6.6h8.2V14c0,0.9-0.2,1.3-0.5,1.6c-0.3,0.2-0.8,0.4-1.4,0.4v1.5
						c1.6-0.1,2.7-0.4,3.6-1.1c0.7-0.6,1.1-1.6,1.1-3V9.8h7.7V9.7V8.2h-7.7V5.8h-2.8v2.4h-4.6L28,3.2h14V1.6H28.6L29.1,0.4z"/>
					<path class="st1" d="M18.8,9.8V4.2H0.1v5.6H8V14c0,0.9-0.2,1.3-0.5,1.6C7.2,15.8,6.7,16,6.2,16v1.5c1.6-0.1,2.7-0.4,3.6-1.1
						c0.7-0.6,1.1-1.6,1.1-3V9.8H18.8z M16.2,8.2H2.9V5.7h13.3V8.2z"/>
					<polygon class="st2" points="19.5,1.6 10.9,1.6 10.9,0.4 8.1,0.4 8.1,1.6 -0.5,1.6 -0.5,3.2 19.5,3.2 					"/>
					<polygon class="st2" points="-0.5,17.5 1.1,17.5 4.7,11.4 1.8,11.4 					"/>
					<polygon class="st2" points="14.3,11.4 18,17.5 19.5,17.5 17.1,11.4 					"/>
					<polygon class="st2" points="77.8,2.8 84.9,2.8 84.9,1.2 67.9,1.2 67.9,2.8 75,2.8 75,14.8 66.4,14.8 66.4,16.6 86.5,16.6 
						86.5,14.8 77.8,14.8 					"/>
					<path class="st1" d="M149.5,2.7h3.3V1.1h-18.1v1.6h3.6V6c0,0.6,0,1.1,0,1.5h-4.7v1.6h4.7c0,1-0.2,1.7-0.3,2.5
						c-0.9,3.2-3.7,4.3-3.7,4.3v1.4c0,0,4.8-0.6,6.5-5.4c0.2-0.6,0.4-1.7,0.5-2.8h5.2v8.2h3.1v-8h4.4V7.5h-4.4V2.7z M141.4,7.5
						c0-0.5,0-1.1,0-1.5V2.7h5v4.8H141.4z"/>
					<path class="st2" d="M162,0.4h-2.7v2h-3.1v1.5h1.6v2.3c0,2.7,0,4.1-0.2,5.7c-0.5,3.2-1.6,4.1-1.6,4.1v1.5c0,0,2.9-1.1,3.8-5.4
						c0.2-0.9,0.4-2.7,0.5-4.5h2.3v6c0,1.2-0.9,2.2-2.1,2.2v1.4c2.3,0,4.5-0.7,4.5-4.1V7.5V7.3V5.9h-4.6v-2h4.9V2.4H162V0.4z"/>
					<path class="st1" d="M170.4,0.3h-2.7c-0.2,1.5-1.3,3.6-2.4,4v1.2c0,0,0.7-0.1,1.5-0.4c0,1.7,0.2,4.3,0.8,5.9
						c0.4,1,1,1.8,1.6,2.5c-1.8,1.5-3.8,2.3-3.8,2.3v1.5c0,0,2.8-0.6,5.2-2.4c2.4,1.8,5.2,2.4,5.2,2.4v-1.5c0,0-2-0.8-3.8-2.3
						c0.6-0.7,1.2-1.5,1.6-2.5c0.8-2,0.8-3.4,0.8-5.9V4.1h1.5V2.7h-6.5C170,2,170.2,1.3,170.4,0.3z M172.1,5.2
						c0,2.7-0.2,4.6-0.9,5.9c-0.2,0.3-0.3,0.6-0.5,0.9c-0.2-0.2-0.4-0.6-0.5-0.9c-0.6-1.3-0.9-5.3-0.9-7h2.7V5.2z"/>
					<polygon class="st2" points="189.3,2.7 196.6,2.7 196.6,1.1 179,1.1 179,2.7 186.3,2.7 186.3,9.5 177.8,9.5 177.8,11 186.3,11 
						186.3,17.4 189.3,17.4 189.3,11 197.8,11 197.8,9.5 189.3,9.5 					"/>
					<polygon class="st2" points="182.4,4 179.3,4 182,8.2 184.2,8.2 					"/>
					<polygon class="st2" points="193.6,8.2 196.3,4 193.2,4 191.4,8.2 					"/>
					<path class="st1" d="M113.1,6.5h-1v10.7h2.3v-3.6h4.4v0.2c0,2.3-1.5,2-2.3,2v1.5c1.6-0.1,4.7,0.3,4.7-4.1V8.1V7.6V6.5h-6.8
						H113.1z M114.4,12v-1.2h4.4V12H114.4z M118.8,8.1v1.2h-4.4V8.1H118.8z"/>
					<path class="st2" d="M125.9,6.7c-0.2,0-0.5-0.2-0.6-0.3c-0.3-0.2-0.5-0.4-0.5-1.3V4.8c2.7-0.2,5.4-1.2,6.4-3.8h-2.5
						c-0.4,1.2-2.3,2.3-3.9,2.5V0.6h-2.6v3.7c0,1.3,0.3,2.4,1,3.1c0.6,0.5,1.2,0.8,2.6,0.9c0.1,0,0.8,0,0.8,0h4.7V6.7
						C131.3,6.7,126.7,6.8,125.9,6.7z"/>
					<path class="st2" d="M125.9,15.5c-0.2,0-0.5-0.2-0.6-0.3c-0.3-0.2-0.5-0.4-0.5-1.3v-0.2c2.7-0.2,5.5-1.3,6.4-3.9h-2.5
						c-0.4,1.3-2.3,2.3-3.9,2.6V9.1h-2.6v4.1c0,1.3,0.3,2.4,1,3.1c0.6,0.5,1.2,0.8,2.6,0.9c0.1,0,0.8,0,0.8,0h4.7v-1.6
						C131.3,15.6,126.7,15.7,125.9,15.5z"/>
					<polygon class="st2" points="118,2 119.1,4 114.8,4 117,0.4 114.6,0.4 111.4,5.6 119.8,5.6 120,6.1 121.7,6.1 120.5,2 					"/>
					<path class="st2" d="M57.5,10.4c-1-1.7-1.9-3.9-1.9-5.9V0.3H54h-1.5v4.2c0,2-0.9,4.2-1.9,5.9c-2.4,3.8-6.5,5.4-6.5,5.4v1.5
						c0,0,6.7-1.5,9.9-8.2c3.3,6.6,9.9,8.2,9.9,8.2v-1.5C64,15.8,59.9,14.2,57.5,10.4z"/>
					<path class="st1" d="M105.4,9.7H93.5h-1.9H91v3v1.5v2.8h1.5h1.1h11.9h1.9h0.6v-2.9v-1.5V9.7h-1.5H105.4z M105.4,15.6H93.5v-1.3
						h11.9V15.6z M105.4,12.8H93.5v-1.5h11.9V12.8z"/>
					<path class="st1" d="M106.3,1.5h-3.5h-1.7h-0.7v1.9v3.2v1.9h0.3h2.1h3.5h1.7h0.7V6.5V3.3V1.5h-0.3H106.3z M106.3,3.3v3.2v0.7
						h-3.5V6.5V3.3V2.6h3.5V3.3z"/>
					<path class="st2" d="M89.3,8.1v1.1c0,0,3.7-0.2,5.3-3.1l0,0l0,0c1.3,2.5,4.6,2.3,4.6,2.3V7.4c0,0-2.5-0.1-2.9-1.8h3.2V4.3H96
						c-0.1-0.6-0.1-1.2-0.1-1.6h3.3V1.5h-4.6h-2.5l1-1.2h-2.6l-1.2,3.2h1.4l0.6-0.8h2.1c0,0.4,0,1.1-0.1,1.6h-4v1.2H93
						C92.4,7.7,89.3,8.1,89.3,8.1z"/>
					<path class="st1" d="M214.7,9.5h-10.9h-1.7h-1v7.8h1h1.7h10.9h2.3h0.5V9.5H217H214.7z M214.7,15.7h-10.9v-4.6h10.9V15.7z"/>
					<polygon class="st2" points="216.9,8.4 218.8,8.4 216.1,3.2 213,3.2 215,5.9 203.5,6 207.6,0.6 204.5,0.6 199.5,7.8 216.5,7.8 
											"/>
				</g>
			</g>
		</g>
	</g>
</g>
</svg>
